<?xml version="1.0" standalone="no"?>
<!DOCTYPE svg PUBLIC "-//W3C//DTD SVG 20010904//EN"
 "http://www.w3.org/TR/2001/REC-SVG-20010904/DTD/svg10.dtd">
<svg version="1.0" xmlns="http://www.w3.org/2000/svg"
 width="650.000000pt" height="662.000000pt" viewBox="0 0 650.000000 662.000000"
 preserveAspectRatio="xMidYMid meet">

<g transform="translate(0.000000,662.000000) scale(0.100000,-0.100000)"
fill="#000000" stroke="none">
<path d="M3035 6249 c-593 -37 -1215 -279 -1685 -654 -561 -448 -961 -1099
-1099 -1790 -47 -235 -55 -320 -55 -605 0 -345 25 -537 109 -835 255 -909 897
-1632 1778 -2004 731 -309 1613 -309 2346 1 457 193 838 469 1155 839 810 945
966 2290 393 3399 -364 706 -981 1236 -1742 1497 -382 130 -770 180 -1200 152z
m485 -129 c695 -62 1364 -381 1848 -884 431 -448 698 -992 799 -1631 25 -157
26 -673 1 -825 -58 -351 -141 -615 -283 -895 -97 -193 -171 -312 -286 -465
-270 -357 -611 -643 -1006 -843 -316 -160 -589 -246 -953 -298 -190 -28 -564
-30 -745 -5 -361 50 -618 128 -930 281 -799 391 -1366 1100 -1570 1961 -61
259 -69 335 -69 679 0 356 8 434 79 715 285 1132 1202 1979 2360 2180 219 38
523 50 755 30z"/>
<path d="M2665 5898 c-63 -50 -65 -131 -5 -182 l29 -24 -6 -377 c-6 -350 -8
-377 -25 -386 -24 -13 -48 -61 -48 -99 0 -42 54 -99 100 -106 26 -4 44 0 70
18 71 48 77 122 14 177 l-35 31 1 368 1 368 30 18 c54 32 73 99 44 156 -30 59
-119 79 -170 38z m103 -90 c4 -36 -26 -53 -56 -32 -38 26 -19 67 28 62 19 -2
26 -10 28 -30z"/>
<path d="M3092 5852 c-56 -53 -50 -131 14 -181 48 -38 127 -21 168 35 13 17
31 19 181 23 92 1 171 -1 176 -6 5 -5 6 -170 2 -376 -6 -326 -8 -367 -22 -372
-23 -7 -51 -58 -51 -92 0 -39 32 -87 69 -102 115 -48 207 99 116 185 l-35 33
2 363 3 363 153 3 c124 2 152 0 152 -11 0 -24 42 -69 78 -84 70 -29 152 30
152 111 0 93 -96 146 -177 96 -18 -11 -33 -24 -33 -30 0 -8 -115 -10 -372 -8
l-373 3 -36 38 c-33 33 -42 37 -87 37 -41 0 -55 -5 -80 -28z m108 -57 c26 -32
-13 -81 -47 -59 -35 22 -23 74 17 74 10 0 23 -7 30 -15z m965 -49 c0 -36 -26
-56 -49 -37 -16 14 -22 52 -9 65 4 4 19 6 33 4 20 -2 25 -8 25 -32z"/>
<path d="M2206 4669 l-26 -20 0 -1383 0 -1383 22 -28 22 -28 999 7 c662 5
1007 11 1023 18 12 6 27 22 33 37 6 16 12 396 15 1011 3 542 9 1154 12 1362
l7 376 -26 26 -26 26 -1014 0 c-1011 0 -1014 0 -1041 -21z m364 -1274 l5 -220
212 -3 c221 -3 233 -5 217 -47 -5 -13 -40 -15 -253 -13 l-246 3 -3 240 c-1
132 0 246 3 253 3 8 16 12 32 10 l28 -3 5 -220z m845 216 c85 -5 100 -9 103
-24 2 -10 -2 -25 -10 -34 -11 -13 -29 -15 -120 -10 l-108 7 -1 -193 c0 -105
-4 -212 -7 -237 -6 -40 -10 -45 -34 -48 -18 -2 -28 2 -29 10 -1 7 0 115 1 241
l2 227 -105 0 c-83 0 -109 3 -121 16 -19 19 -20 26 -4 42 13 13 250 15 433 3z
m579 -27 c3 -9 6 -123 6 -254 0 -178 -3 -240 -12 -248 -8 -5 -121 -12 -265
-14 -199 -4 -257 -3 -270 8 -14 10 -16 17 -7 31 9 15 30 19 130 24 65 4 172 7
237 8 l117 1 0 223 c0 123 3 227 7 230 12 13 51 7 57 -9z"/>
<path d="M5485 4360 c-31 -12 -62 -52 -69 -86 -9 -41 14 -97 48 -119 l26 -17
0 -174 0 -175 -367 7 -367 7 -24 28 c-30 37 -79 46 -125 24 -89 -42 -81 -166
13 -205 39 -16 92 2 123 41 l23 29 359 -2 360 -3 3 -152 c2 -136 1 -153 -14
-153 -9 0 -31 -15 -50 -34 -26 -26 -34 -42 -34 -70 0 -52 25 -95 65 -112 43
-18 59 -18 99 1 70 33 87 120 36 178 l-30 35 0 363 0 364 30 20 c17 11 37 38
46 61 14 37 14 45 0 77 -25 60 -94 91 -151 67z m75 -85 c14 -17 5 -51 -16 -59
-24 -9 -54 12 -54 39 0 34 47 48 70 20z m-32 -947 c7 -7 12 -22 12 -35 0 -31
-47 -44 -67 -18 -17 24 -16 30 3 49 19 19 36 20 52 4z"/>
<path d="M1723 3880 c-12 -5 -32 -23 -44 -40 l-23 -30 -343 6 c-323 7 -344 6
-363 -11 -19 -17 -20 -30 -20 -361 l0 -344 -23 -15 c-46 -30 -60 -95 -30 -145
33 -57 113 -68 165 -22 27 25 31 35 31 77 0 44 -4 52 -36 80 l-37 32 0 322 0
321 331 -7 331 -6 28 -29 c55 -54 145 -29 170 47 15 47 -10 102 -56 121 -38
16 -50 16 -81 4z m-728 -885 c0 -25 -4 -30 -24 -30 -32 0 -49 28 -31 50 7 9
23 15 34 13 16 -2 21 -10 21 -33z"/>
<path d="M4582 2920 c-38 -23 -64 -76 -55 -111 9 -36 32 -67 54 -74 18 -6 19
-21 19 -375 l0 -369 22 -15 c19 -14 72 -16 375 -16 341 0 353 -1 363 -20 14
-25 61 -50 97 -50 46 0 90 34 104 79 16 53 -10 108 -63 134 -49 24 -97 10
-136 -39 l-27 -34 -334 0 -334 0 6 346 7 346 29 28 c34 35 42 66 27 111 -12
36 -66 79 -100 79 -12 0 -36 -9 -54 -20z m898 -895 c20 -25 8 -50 -25 -50 -24
0 -31 5 -33 24 -6 37 34 55 58 26z"/>
<path d="M843 2739 c-91 -26 -99 -169 -12 -215 15 -7 38 -14 49 -14 33 0 86
28 99 53 l12 22 374 -3 373 -2 35 -35 c39 -39 86 -46 137 -20 38 20 65 89 51
128 -19 49 -59 77 -108 77 -38 0 -50 -5 -80 -35 l-35 -35 -367 0 -367 0 -23
31 c-13 17 -38 37 -57 45 -37 16 -37 16 -81 3z m71 -91 c23 -38 -35 -78 -61
-42 -17 23 -16 29 3 49 20 19 43 16 58 -7z"/>
<path d="M2712 1713 c-38 -19 -62 -58 -62 -104 0 -24 9 -41 38 -68 l37 -36 -3
-352 -3 -353 -145 0 c-142 0 -145 0 -153 23 -5 13 -24 36 -42 51 -28 24 -40
27 -77 23 -116 -13 -139 -163 -34 -213 41 -19 96 -8 127 26 17 19 30 20 375
20 l358 0 16 -25 c39 -60 129 -70 179 -20 54 55 37 143 -35 178 -49 24 -89 15
-132 -29 l-34 -35 -163 3 -163 3 3 355 c3 336 4 355 22 368 10 7 26 27 35 44
29 57 -1 121 -69 147 -36 14 -35 14 -75 -6z m-365 -909 c9 -24 -10 -49 -38
-49 -24 0 -36 23 -25 51 7 19 55 18 63 -2z m931 -33 c5 -32 -23 -54 -49 -40
-19 10 -26 49 -12 63 4 4 19 6 33 4 18 -2 26 -10 28 -27z"/>
<path d="M3634 1681 c-37 -22 -59 -70 -50 -107 4 -15 20 -39 37 -55 l29 -27 0
-335 0 -335 25 -16 c21 -14 67 -16 344 -16 l319 0 30 -30 c83 -82 221 16 167
120 -20 38 -74 64 -116 55 -16 -4 -42 -22 -57 -41 l-27 -34 -307 0 -308 0 0
316 0 316 30 28 c24 22 30 36 30 70 0 52 -13 76 -50 95 -38 20 -58 19 -96 -4z
m832 -825 c15 -12 17 -18 8 -33 -15 -24 -58 -24 -62 0 -4 18 14 47 27 47 4 0
16 -6 27 -14z"/>
</g>
</svg>
